<svg xmlns="http://www.w3.org/2000/svg" width="1200" height="630" viewBox="0 0 1200 630" fill="none">
  <defs>
    <linearGradient id="bg" x1="0" y1="0" x2="1200" y2="630" gradientUnits="userSpaceOnUse">
      <stop stop-color="#08111F"/>
      <stop offset="1" stop-color="#0F172A"/>
    </linearGradient>
    <linearGradient id="accent" x1="200" y1="180" x2="980" y2="470" gradientUnits="userSpaceOnUse">
      <stop stop-color="#38BDF8"/>
      <stop offset="1" stop-color="#F97316"/>
    </linearGradient>
    <filter id="shadow" x="-20%" y="-20%" width="140%" height="140%">
      <feDropShadow dx="0" dy="16" stdDeviation="18" flood-color="#000000" flood-opacity="0.35"/>
    </filter>
  </defs>
  <rect width="1200" height="630" fill="url(#bg)"/>
  <circle cx="1010" cy="110" r="170" fill="#1E293B" opacity="0.35"/>
  <circle cx="180" cy="540" r="190" fill="#0F766E" opacity="0.18"/>
  <path d="M150 140C290 70 430 70 560 140" stroke="url(#accent)" stroke-width="6" stroke-linecap="round" stroke-dasharray="1 22"/>
  <path d="M640 500C510 560 350 560 220 500" stroke="url(#accent)" stroke-width="6" stroke-linecap="round" stroke-dasharray="1 22" opacity="0.7"/>

  <text x="72" y="122" fill="#38BDF8" font-family="ui-monospace, SFMono-Regular, Menlo, Monaco, Consolas, monospace" font-size="18">// agentic systems</text>
  <text x="70" y="208" fill="#F8FAFC" font-family="Inter, ui-sans-serif, system-ui, -apple-system, BlinkMacSystemFont, sans-serif" font-size="58" font-weight="800">Loop Engineering</text>
  <text x="70" y="260" fill="#CBD5E1" font-family="Inter, ui-sans-serif, system-ui, -apple-system, BlinkMacSystemFont, sans-serif" font-size="24">Build AI systems that improve on every turn.</text>

  <g filter="url(#shadow)">
    <rect x="690" y="150" rx="28" width="370" height="330" fill="#111827" stroke="#334155" stroke-width="2"/>
    <rect x="730" y="190" rx="18" width="110" height="74" fill="#1E293B" stroke="#38BDF8" stroke-width="2"/>
    <rect x="850" y="290" rx="18" width="110" height="74" fill="#1E293B" stroke="#F97316" stroke-width="2"/>
    <rect x="730" y="390" rx="18" width="110" height="74" fill="#1E293B" stroke="#22C55E" stroke-width="2"/>
    <circle cx="940" cy="228" r="26" fill="#0F172A" stroke="#38BDF8" stroke-width="4"/>
    <circle cx="980" cy="328" r="26" fill="#0F172A" stroke="#F97316" stroke-width="4"/>
    <circle cx="940" cy="428" r="26" fill="#0F172A" stroke="#22C55E" stroke-width="4"/>
    <path d="M887 228H914" stroke="#64748B" stroke-width="4" stroke-linecap="round"/>
    <path d="M939 254V262" stroke="#64748B" stroke-width="4" stroke-linecap="round"/>
    <path d="M914 328H953" stroke="#64748B" stroke-width="4" stroke-linecap="round"/>
    <path d="M939 354V362" stroke="#64748B" stroke-width="4" stroke-linecap="round"/>
    <path d="M887 428H914" stroke="#64748B" stroke-width="4" stroke-linecap="round"/>
    <path d="M939 400V392" stroke="#64748B" stroke-width="4" stroke-linecap="round"/>
    <text x="745" y="236" fill="#E2E8F0" font-family="Inter, ui-sans-serif, system-ui, -apple-system, BlinkMacSystemFont, sans-serif" font-size="18" font-weight="700">Observe</text>
    <text x="865" y="336" fill="#E2E8F0" font-family="Inter, ui-sans-serif, system-ui, -apple-system, BlinkMacSystemFont, sans-serif" font-size="18" font-weight="700">Verify</text>
    <text x="744" y="436" fill="#E2E8F0" font-family="Inter, ui-sans-serif, system-ui, -apple-system, BlinkMacSystemFont, sans-serif" font-size="18" font-weight="700">Learn</text>
    <text x="930" y="234" fill="#38BDF8" font-family="ui-monospace, SFMono-Regular, Menlo, Monaco, Consolas, monospace" font-size="13">inputs</text>
    <text x="968" y="334" fill="#F97316" font-family="ui-monospace, SFMono-Regular, Menlo, Monaco, Consolas, monospace" font-size="13">tests</text>
    <text x="930" y="434" fill="#22C55E" font-family="ui-monospace, SFMono-Regular, Menlo, Monaco, Consolas, monospace" font-size="13">memory</text>
  </g>

  <circle cx="940" cy="328" r="116" fill="none" stroke="url(#accent)" stroke-width="5" stroke-dasharray="14 12" opacity="0.7"/>
  <path d="M1039 285C1060 307 1072 334 1072 364" stroke="#CBD5E1" stroke-width="5" stroke-linecap="round"/>
  <path d="M1072 364L1059 350M1072 364L1059 377" stroke="#CBD5E1" stroke-width="5" stroke-linecap="round"/>
  <text x="72" y="566" fill="#94A3B8" font-family="Inter, ui-sans-serif, system-ui, -apple-system, BlinkMacSystemFont, sans-serif" font-size="18">Observe -> Plan -> Act -> Verify -> Learn</text>
</svg>
